<svg xmlns="http://www.w3.org/2000/svg" viewBox="0 0 24 24">
    <defs>
        <style>.cls-1{fill:none;}</style>
    </defs>
    <title>Location Map</title>
    <polygon points="6.81 11 2.31 11 1.68 17 6.42 17 6.81 11"/>
    <polygon points="20.69 11 16.37 11 16.75 17 21.32 17 20.69 11"/>
    <polygon points="16.18 24 15.81 18 7.36 18 6.97 24 16.18 24"/>
    <path d="M12.74,15.46a1.5,1.5,0,0,1-2.3,0C10,15,8.89,13.56,7.75,11.88L7.42,17h8.32l-.32-5.11C14.29,13.57,13.15,15,12.74,15.46Z"/>
    <path d="M6.36,18H1.58L1,23.45a.5.5,0,0,0,.5.55H6Z"/>
    <path d="M18.18,5.59A10,10,0,0,1,16.6,10h4L20,4.45A.5.5,0,0,0,19.5,4H18A6.56,6.56,0,0,1,18.18,5.59Z"/>
    <path d="M16.81,18l.38,6H21.5a.5.5,0,0,0,.37-.17.51.51,0,0,0,.13-.39L21.42,18Z"/>
    <path d="M6.58,10A10,10,0,0,1,5,5.59,6.51,6.51,0,0,1,5.2,4H3.5a.5.5,0,0,0-.5.45L2.42,10Z"/>
    <path d="M11.59,0A5.6,5.6,0,0,0,6,5.59c0,3,5,9,5.21,9.23a.5.5,0,0,0,.77,0c.21-.25,5.2-6.27,5.2-9.23A5.59,5.59,0,0,0,11.59,0Zm0,8A2.41,2.41,0,1,1,14,5.59,2.41,2.41,0,0,1,11.59,8Z"/>
</svg>