<svg xmlns="http://www.w3.org/2000/svg" viewBox="0 0 24 24">
    <defs>
        <style>.cls-1{fill:none;}</style>
    </defs>
    <title>Mobile Phone</title>
    <path d="M16.5,0h-9A3.5,3.5,0,0,0,4,3.5v17A3.5,3.5,0,0,0,7.5,24h9A3.5,3.5,0,0,0,20,20.5V3.5A3.5,3.5,0,0,0,16.5,0Zm-7,2h5a.5.5,0,0,1,0,1h-5a.5.5,0,0,1,0-1ZM9,21H8V20H9Zm5,.5a.5.5,0,0,1-.5.5h-3a.5.5,0,0,1-.5-.5v-2a.5.5,0,0,1,.5-.5h3a.5.5,0,0,1,.5.5Zm2-.5H15V20h1Zm2-4.5A1.5,1.5,0,0,1,16.5,18h-9A1.5,1.5,0,0,1,6,16.5V5.5A1.5,1.5,0,0,1,7.5,4h9A1.5,1.5,0,0,1,18,5.5Z"/>
</svg>